<svg width="51" height="40" viewBox="0 0 51 40" fill="none" xmlns="http://www.w3.org/2000/svg">
<path d="M25.2738 26.9575C29.7803 26.9575 33.4335 23.3043 33.4335 18.7978C33.4335 14.2913 29.7803 10.6381 25.2738 10.6381C20.7673 10.6381 17.114 14.2913 17.114 18.7978C17.114 23.3043 20.7673 26.9575 25.2738 26.9575Z" fill="#FFB74B"/>
<path d="M27.6465 4.24341L26.055 6.45695C25.9669 6.58232 25.85 6.68465 25.714 6.75529C25.578 6.82593 25.427 6.86281 25.2738 6.86281C25.1206 6.86281 24.9696 6.82593 24.8336 6.75529C24.6976 6.68465 24.5806 6.58232 24.4925 6.45695L22.8432 4.24341C22.7245 4.08195 22.6605 3.8868 22.6605 3.68641C22.6605 3.48602 22.7245 3.29086 22.8432 3.1294L24.4347 0.915862C24.5228 0.790491 24.6397 0.688164 24.7757 0.617524C24.9117 0.546885 25.0627 0.51001 25.2159 0.51001C25.3691 0.51001 25.5201 0.546885 25.6561 0.617524C25.7921 0.688164 25.9091 0.790491 25.9972 0.915862L27.5886 3.1294C27.7159 3.28461 27.7901 3.47646 27.8006 3.6769C27.811 3.87734 27.757 4.07585 27.6465 4.24341Z" fill="#FFB74B"/>
<path d="M16.6656 6.83311L17.0562 9.52408C17.0786 9.67493 17.0652 9.82896 17.0169 9.97363C16.9686 10.1183 16.8869 10.2495 16.7784 10.3567C16.6698 10.4638 16.5375 10.5438 16.3922 10.5902C16.2469 10.6366 16.0927 10.648 15.9422 10.6236L13.2512 10.1896C13.0531 10.1542 12.8706 10.059 12.7283 9.91673C12.5861 9.77445 12.4908 9.59196 12.4555 9.39387L12.0215 6.7029C11.999 6.55204 12.0125 6.39802 12.0607 6.25335C12.109 6.10867 12.1908 5.97743 12.2993 5.87029C12.4079 5.76316 12.5402 5.68314 12.6854 5.63676C12.8307 5.59038 12.9849 5.57894 13.1355 5.60336L15.812 6.03739C16.0222 6.05698 16.22 6.1457 16.3745 6.28968C16.5289 6.43365 16.6313 6.62476 16.6656 6.83311Z" fill="#FFB74B"/>
<path d="M10.7339 16.4685L12.9474 18.06C13.0728 18.1481 13.1751 18.265 13.2457 18.401C13.3164 18.537 13.3533 18.688 13.3533 18.8412C13.3533 18.9944 13.3164 19.1454 13.2457 19.2814C13.1751 19.4174 13.0728 19.5344 12.9474 19.6225L10.7339 21.2139C10.5677 21.3277 10.371 21.3887 10.1696 21.3887C9.96822 21.3887 9.77153 21.3277 9.60539 21.2139L7.40632 19.608C7.28098 19.5215 7.17853 19.4059 7.10775 19.2711C7.03698 19.1363 7 18.9863 7 18.834C7 18.6817 7.03698 18.5317 7.10775 18.3969C7.17853 18.2621 7.28098 18.1464 7.40632 18.06L9.60539 16.4685C9.76908 16.3486 9.96671 16.284 10.1696 16.284C10.3725 16.284 10.5702 16.3486 10.7339 16.4685Z" fill="#FFB74B"/>
<path d="M13.3091 27.3916L16.0001 26.9575C16.1448 26.9434 16.2909 26.962 16.4274 27.012C16.564 27.0619 16.6876 27.142 16.789 27.2462C16.8904 27.3504 16.9671 27.4761 17.0134 27.6139C17.0596 27.7518 17.0743 27.8983 17.0562 28.0426L16.6077 30.7336C16.5786 30.9343 16.4854 31.1202 16.342 31.2636C16.1986 31.407 16.0127 31.5002 15.812 31.5293L13.1355 31.9633C12.9844 31.9911 12.8288 31.982 12.682 31.9369C12.5351 31.8917 12.4013 31.8117 12.292 31.7038C12.1827 31.5959 12.101 31.4632 12.0539 31.3169C12.0068 31.1707 11.9957 31.0152 12.0215 30.8638L12.4555 28.1728C12.497 27.9691 12.6019 27.7838 12.7553 27.6434C12.9086 27.5031 13.1025 27.4149 13.3091 27.3916Z" fill="#FFB74B"/>
<path d="M22.8432 33.3378L24.4347 31.1242C24.5228 30.9988 24.6397 30.8965 24.7757 30.8259C24.9117 30.7552 25.0627 30.7184 25.2159 30.7184C25.3691 30.7184 25.5201 30.7552 25.6561 30.8259C25.7921 30.8965 25.9091 30.9988 25.9972 31.1242L27.5886 33.3378C27.7085 33.5014 27.7731 33.6991 27.7731 33.902C27.7731 34.1049 27.7085 34.3025 27.5886 34.4662L26.055 36.7232C25.9669 36.8485 25.85 36.9509 25.714 37.0215C25.578 37.0921 25.427 37.129 25.2738 37.129C25.1206 37.129 24.9696 37.0921 24.8336 37.0215C24.6976 36.9509 24.5806 36.8485 24.4925 36.7232L22.8432 34.4662C22.7233 34.3025 22.6587 34.1049 22.6587 33.902C22.6587 33.6991 22.7233 33.5014 22.8432 33.3378Z" fill="#FFB74B"/>
<path d="M33.882 30.7481L33.4335 28.0426C33.4111 27.8918 33.4245 27.7377 33.4728 27.5931C33.5211 27.4484 33.6028 27.3172 33.7113 27.21C33.8199 27.1029 33.9522 27.0229 34.0975 26.9765C34.2428 26.9301 34.397 26.9187 34.5475 26.9431L37.2385 27.3916C37.4383 27.4229 37.623 27.5168 37.766 27.6598C37.909 27.8028 38.0029 27.9875 38.0342 28.1873L38.4682 30.8638C38.494 31.0153 38.4829 31.1707 38.4358 31.3169C38.3887 31.4632 38.307 31.5959 38.1977 31.7038C38.0884 31.8117 37.9546 31.8917 37.8077 31.9369C37.6609 31.982 37.5053 31.9911 37.3542 31.9633L34.6777 31.5293C34.4791 31.501 34.2947 31.4099 34.1516 31.2694C34.0084 31.1288 33.9139 30.9461 33.882 30.7481Z" fill="#FFB74B"/>
<path d="M39.8137 21.1705L37.6002 19.579C37.4748 19.4909 37.3725 19.374 37.3019 19.238C37.2312 19.102 37.1943 18.951 37.1943 18.7978C37.1943 18.6446 37.2312 18.4936 37.3019 18.3576C37.3725 18.2216 37.4748 18.1046 37.6002 18.0165L39.8137 16.4251C39.9774 16.3052 40.1751 16.2406 40.378 16.2406C40.5809 16.2406 40.7785 16.3052 40.9422 16.4251L43.1413 18.0165C43.2667 18.1046 43.369 18.2216 43.4396 18.3576C43.5103 18.4936 43.5471 18.6446 43.5471 18.7978C43.5471 18.951 43.5103 19.102 43.4396 19.238C43.369 19.374 43.2667 19.4909 43.1413 19.579L40.9422 21.1705C40.7761 21.2843 40.5794 21.3452 40.378 21.3452C40.1766 21.3452 39.9799 21.2843 39.8137 21.1705Z" fill="#FFB74B"/>
<path d="M37.3108 10.1896L34.6199 10.6236C34.4692 10.6523 34.3139 10.6436 34.1674 10.5985C34.0209 10.5534 33.8876 10.4732 33.7792 10.3647C33.6708 10.2563 33.5905 10.1231 33.5454 9.97655C33.5003 9.83003 33.4917 9.6747 33.5203 9.52408L33.9543 6.83311C33.9897 6.63502 34.0849 6.45253 34.2272 6.31025C34.3695 6.16796 34.552 6.07273 34.7501 6.03739L37.441 5.60337C37.5905 5.58148 37.743 5.59483 37.8864 5.64235C38.0298 5.68987 38.1601 5.77023 38.2669 5.87705C38.3737 5.98386 38.4541 6.11416 38.5016 6.25754C38.5491 6.40093 38.5625 6.55344 38.5406 6.7029L38.1065 9.39387C38.0712 9.59196 37.976 9.77445 37.8337 9.91673C37.6914 10.059 37.5089 10.1543 37.3108 10.1896Z" fill="#FFB74B"/>
<path d="M1.71 39.06H6.435C7.155 39.06 7.785 38.43 7.785 37.665C7.785 36.945 7.155 36.315 6.39 36.315H2.925V2.745H6.39C7.155 2.745 7.785 2.115 7.785 1.395C7.785 0.63 7.155 0 6.39 0H1.71C0.765 0 0 0.719999 0 1.665V37.44C0 38.34 0.765 39.06 1.71 39.06Z" fill="#FFB74B"/>
<path d="M48.79 39.06H44.065C43.345 39.06 42.715 38.43 42.715 37.665C42.715 36.945 43.345 36.315 44.11 36.315H47.575V2.745H44.11C43.345 2.745 42.715 2.115 42.715 1.395C42.715 0.63 43.345 0 44.11 0H48.79C49.735 0 50.5 0.719999 50.5 1.665V37.44C50.5 38.34 49.735 39.06 48.79 39.06Z" fill="#FFB74B"/>
</svg>
