<svg width="188" height="32" viewBox="0 0 188 32" fill="none" xmlns="http://www.w3.org/2000/svg">
<path d="M26 25.32L20.99 8.43C20.72 7.5 19.85 6.84 18.83 6.84C17.84 6.84 16.97 7.5 16.7 8.43L11.69 25.32C11.63 25.47 11.6 25.59 11.6 25.71C11.6 26.49 12.23 27.15 13.01 27.15C13.64 27.15 14.21 26.7 14.36 26.13L15.26 22.77H22.4L23.33 26.13C23.48 26.7 24.02 27.15 24.68 27.15C25.46 27.15 26.09 26.52 26.09 25.74C26.09 25.59 26.06 25.44 26 25.32ZM15.95 20.25L18.83 9.63L21.74 20.25H15.95ZM40.7731 25.05L37.3531 18.69C39.1231 18.15 40.8931 16.44 40.8931 13.08C40.8931 9.39 38.5531 6.99 35.2231 6.99H30.2431C29.2531 6.99 28.7131 7.53 28.7131 8.52V25.71C28.7131 26.49 29.3431 27.15 30.1531 27.15C30.9331 27.15 31.5631 26.49 31.5631 25.71V19.23H34.5331L38.2831 26.37C38.5231 26.85 39.0331 27.15 39.5731 27.15C40.3831 27.15 40.9531 26.43 40.9531 25.8C40.9531 25.44 40.8631 25.26 40.7731 25.05ZM31.5631 9.51H34.8331C36.7531 9.51 37.9531 10.98 37.9531 13.11C37.9531 15.24 36.7531 16.71 34.8331 16.71H31.5631V9.51ZM56.4177 25.05L52.9977 18.69C54.7677 18.15 56.5377 16.44 56.5377 13.08C56.5377 9.39 54.1977 6.99 50.8677 6.99H45.8877C44.8977 6.99 44.3577 7.53 44.3577 8.52V25.71C44.3577 26.49 44.9877 27.15 45.7977 27.15C46.5777 27.15 47.2077 26.49 47.2077 25.71V19.23H50.1777L53.9277 26.37C54.1677 26.85 54.6777 27.15 55.2177 27.15C56.0277 27.15 56.5977 26.43 56.5977 25.8C56.5977 25.44 56.5077 25.26 56.4177 25.05ZM47.2077 9.51H50.4777C52.3977 9.51 53.5977 10.98 53.5977 13.11C53.5977 15.24 52.3977 16.71 50.4777 16.71H47.2077V9.51ZM72.9922 25.32L67.9822 8.43C67.7122 7.5 66.8422 6.84 65.8222 6.84C64.8322 6.84 63.9622 7.5 63.6922 8.43L58.6822 25.32C58.6222 25.47 58.5922 25.59 58.5922 25.71C58.5922 26.49 59.2222 27.15 60.0022 27.15C60.6322 27.15 61.2022 26.7 61.3522 26.13L62.2522 22.77H69.3922L70.3222 26.13C70.4722 26.7 71.0122 27.15 71.6722 27.15C72.4522 27.15 73.0822 26.52 73.0822 25.74C73.0822 25.59 73.0522 25.44 72.9922 25.32ZM62.9422 20.25L65.8222 9.63L68.7322 20.25H62.9422ZM86.8955 8.22C86.8955 7.44 86.2655 6.84 85.5155 6.84C84.9755 6.84 84.4955 7.17 84.2855 7.62L80.0855 15.96L75.8855 7.62C75.6755 7.14 75.1955 6.84 74.6555 6.84C73.9055 6.84 73.2755 7.47 73.2755 8.22C73.2755 8.46 73.3355 8.7 73.4555 8.88L78.6755 18.63V25.71C78.6755 26.49 79.3055 27.15 80.0855 27.15C80.8955 27.15 81.5255 26.49 81.5255 25.71V18.57L86.7155 8.85C86.8355 8.67 86.8955 8.46 86.8955 8.22Z" fill="#A54500"/>
<path d="M2.28 29.7H5.43C5.91 29.7 6.33 29.28 6.33 28.77C6.33 28.29 5.91 27.87 5.4 27.87H3.09V5.49H5.4C5.91 5.49 6.33 5.07 6.33 4.59C6.33 4.08 5.91 3.66 5.4 3.66H2.28C1.65 3.66 1.14 4.14 1.14 4.77V28.62C1.14 29.22 1.65 29.7 2.28 29.7Z" fill="#FFB74B"/>
<path d="M93.2 29.7H96.35C96.98 29.7 97.49 29.22 97.49 28.62V4.77C97.49 4.14 96.98 3.66 96.35 3.66H93.23C92.72 3.66 92.3 4.08 92.3 4.59C92.3 5.07 92.72 5.49 93.23 5.49H95.54V27.87H93.23C92.72 27.87 92.3 28.29 92.3 28.77C92.3 29.28 92.72 29.7 93.2 29.7Z" fill="#FFB74B"/>
<path d="M105.871 17.886C105.871 20.402 107.197 22.204 109.39 22.204C110.325 22.204 111.141 21.847 111.804 21.201C111.906 21.099 111.974 20.98 111.974 20.844C111.974 20.572 111.753 20.351 111.481 20.351C111.362 20.351 111.243 20.385 111.158 20.47C110.665 20.946 110.087 21.184 109.492 21.184C108.03 21.184 107.18 19.943 107.129 18.294H111.719C112.178 18.294 112.45 18.022 112.45 17.631C112.45 15.523 111.362 13.585 109.203 13.585C107.129 13.585 105.871 15.506 105.871 17.886ZM109.186 14.605C110.682 14.605 111.226 16.135 111.243 17.393H107.129C107.163 16.186 107.741 14.605 109.186 14.605ZM117.818 13.585C116.832 13.585 115.897 14.282 115.438 14.979V14.333C115.438 13.993 115.166 13.721 114.826 13.721C114.503 13.721 114.231 13.993 114.231 14.333V21.456C114.231 21.796 114.503 22.068 114.843 22.068C115.166 22.068 115.438 21.796 115.438 21.456V15.982C115.812 15.302 116.56 14.673 117.359 14.673C118.175 14.673 118.668 15.064 118.668 16.152V21.456C118.668 21.796 118.957 22.068 119.28 22.068C119.62 22.068 119.892 21.796 119.892 21.456V15.812C119.892 14.333 119.212 13.585 117.818 13.585ZM127.437 13.721C127.097 13.721 126.825 13.993 126.825 14.333V14.996C126.332 14.061 125.516 13.585 124.666 13.585C122.813 13.585 121.725 15.302 121.725 17.852C121.725 20.436 122.83 22.102 124.666 22.102C125.533 22.102 126.349 21.524 126.825 20.657V22.068C126.825 23.649 125.89 24.295 124.768 24.295C124.071 24.295 123.51 24.091 123.017 23.7C122.932 23.632 122.813 23.598 122.711 23.598C122.405 23.598 122.15 23.836 122.15 24.142C122.15 24.329 122.252 24.482 122.388 24.584C123.119 25.145 123.867 25.332 124.802 25.332C126.519 25.332 128.049 24.516 128.049 21.983V14.333C128.049 13.993 127.76 13.721 127.437 13.721ZM124.972 21.014C123.629 21.014 123 19.62 123 17.852C123 16.084 123.629 14.673 124.972 14.673C125.754 14.673 126.519 15.302 126.825 16.016V19.654C126.519 20.368 125.754 21.014 124.972 21.014ZM130.863 12.106C131.322 12.106 131.696 11.732 131.696 11.273C131.696 10.814 131.322 10.44 130.863 10.44C130.421 10.44 130.03 10.814 130.03 11.273C130.03 11.732 130.421 12.106 130.863 12.106ZM130.863 22.068C131.203 22.068 131.475 21.796 131.475 21.456V14.333C131.475 13.993 131.203 13.721 130.88 13.721C130.54 13.721 130.268 13.993 130.268 14.333V21.456C130.268 21.796 130.54 22.068 130.863 22.068ZM137.308 13.585C136.322 13.585 135.387 14.282 134.928 14.979V14.333C134.928 13.993 134.656 13.721 134.316 13.721C133.993 13.721 133.721 13.993 133.721 14.333V21.456C133.721 21.796 133.993 22.068 134.333 22.068C134.656 22.068 134.928 21.796 134.928 21.456V15.982C135.302 15.302 136.05 14.673 136.849 14.673C137.665 14.673 138.158 15.064 138.158 16.152V21.456C138.158 21.796 138.447 22.068 138.77 22.068C139.11 22.068 139.382 21.796 139.382 21.456V15.812C139.382 14.333 138.702 13.585 137.308 13.585ZM141.215 17.886C141.215 20.402 142.541 22.204 144.734 22.204C145.669 22.204 146.485 21.847 147.148 21.201C147.25 21.099 147.318 20.98 147.318 20.844C147.318 20.572 147.097 20.351 146.825 20.351C146.706 20.351 146.587 20.385 146.502 20.47C146.009 20.946 145.431 21.184 144.836 21.184C143.374 21.184 142.524 19.943 142.473 18.294H147.063C147.522 18.294 147.794 18.022 147.794 17.631C147.794 15.523 146.706 13.585 144.547 13.585C142.473 13.585 141.215 15.506 141.215 17.886ZM144.53 14.605C146.026 14.605 146.57 16.135 146.587 17.393H142.473C142.507 16.186 143.085 14.605 144.53 14.605ZM149.168 17.886C149.168 20.402 150.494 22.204 152.687 22.204C153.622 22.204 154.438 21.847 155.101 21.201C155.203 21.099 155.271 20.98 155.271 20.844C155.271 20.572 155.05 20.351 154.778 20.351C154.659 20.351 154.54 20.385 154.455 20.47C153.962 20.946 153.384 21.184 152.789 21.184C151.327 21.184 150.477 19.943 150.426 18.294H155.016C155.475 18.294 155.747 18.022 155.747 17.631C155.747 15.523 154.659 13.585 152.5 13.585C150.426 13.585 149.168 15.506 149.168 17.886ZM152.483 14.605C153.979 14.605 154.523 16.135 154.54 17.393H150.426C150.46 16.186 151.038 14.605 152.483 14.605ZM160.605 13.67C160.452 13.67 160.333 13.721 160.197 13.789C159.602 14.01 159.092 14.503 158.735 15.115V14.333C158.735 13.993 158.463 13.721 158.123 13.721C157.8 13.721 157.528 13.993 157.528 14.333V21.456C157.528 21.796 157.8 22.068 158.14 22.068C158.463 22.068 158.735 21.796 158.735 21.456V16.169C159.092 15.472 159.874 14.86 160.605 14.843C160.945 14.792 161.149 14.537 161.149 14.265C161.149 13.942 160.928 13.67 160.605 13.67ZM163.07 12.106C163.529 12.106 163.903 11.732 163.903 11.273C163.903 10.814 163.529 10.44 163.07 10.44C162.628 10.44 162.237 10.814 162.237 11.273C162.237 11.732 162.628 12.106 163.07 12.106ZM163.07 22.068C163.41 22.068 163.682 21.796 163.682 21.456V14.333C163.682 13.993 163.41 13.721 163.087 13.721C162.747 13.721 162.475 13.993 162.475 14.333V21.456C162.475 21.796 162.747 22.068 163.07 22.068ZM169.515 13.585C168.529 13.585 167.594 14.282 167.135 14.979V14.333C167.135 13.993 166.863 13.721 166.523 13.721C166.2 13.721 165.928 13.993 165.928 14.333V21.456C165.928 21.796 166.2 22.068 166.54 22.068C166.863 22.068 167.135 21.796 167.135 21.456V15.982C167.509 15.302 168.257 14.673 169.056 14.673C169.872 14.673 170.365 15.064 170.365 16.152V21.456C170.365 21.796 170.654 22.068 170.977 22.068C171.317 22.068 171.589 21.796 171.589 21.456V15.812C171.589 14.333 170.909 13.585 169.515 13.585ZM179.134 13.721C178.794 13.721 178.522 13.993 178.522 14.333V14.996C178.029 14.061 177.213 13.585 176.363 13.585C174.51 13.585 173.422 15.302 173.422 17.852C173.422 20.436 174.527 22.102 176.363 22.102C177.23 22.102 178.046 21.524 178.522 20.657V22.068C178.522 23.649 177.587 24.295 176.465 24.295C175.768 24.295 175.207 24.091 174.714 23.7C174.629 23.632 174.51 23.598 174.408 23.598C174.102 23.598 173.847 23.836 173.847 24.142C173.847 24.329 173.949 24.482 174.085 24.584C174.816 25.145 175.564 25.332 176.499 25.332C178.216 25.332 179.746 24.516 179.746 21.983V14.333C179.746 13.993 179.457 13.721 179.134 13.721ZM176.669 21.014C175.326 21.014 174.697 19.62 174.697 17.852C174.697 16.084 175.326 14.673 176.669 14.673C177.451 14.673 178.216 15.302 178.522 16.016V19.654C178.216 20.368 177.451 21.014 176.669 21.014Z" fill="#454545"/>
</svg>
